<svg height="160" viewBox="0 0 300 160" width="300" xmlns="http://www.w3.org/2000/svg" xmlns:xlink="http://www.w3.org/1999/xlink"><mask id="a" fill="#fff"><path d="m0 .4496732h173.17873v117.4305878h-173.17873z" fill="#fff" fill-rule="evenodd"/></mask><mask id="b" fill="#fff"><path d="m.11373913.41544238h123.09756487v109.68207362h-123.09756487z" fill="#fff" fill-rule="evenodd"/></mask><mask id="c" fill="#fff"><path d="m0 159.477124h299.55913v-159.0274508h-299.55913z" fill="#fff" fill-rule="evenodd"/></mask><g fill="none" fill-rule="evenodd"><g fill="#231f20"><path d="m52.1635304 29.2817778-29.6869565 4.1819608-19.62052173-10.6969935 29.68747823-4.1814379z"/><path d="m30.318 104.950222-28.39565217-81.0949017 19.85165217 10.8224836 28.3956522 81.0954251z"/><path d="m82.2070957 112.216837-30.3046957 4.267712-28.6147826-81.7192157 30.5603478-4.3043137 13.5568696 49.5236601 1.3481739.0073203 15.2895652-53.7840523 12.4257391-1.7500653 14.865391-2.0935948 1.637739 5.3720261v.0010458l13.40087 43.96183.158087.0486275.071478 1.1660131v9.8232679l-3.816.5019608-.608869.694902v3.3861438l-5.006087 4.3398693-.192.269281-2.099479 5.2679739.094435.6865359 3.344348 4.3801303-6.167478 5.259085-14.1125219-48.6091499-1.3466087.0120261z"/></g><g transform="translate(0 .073203)"><g fill="#231f20"><path d="m140.219478 43.6673464-2.902435 4.9772549-.096.3539869v9.3369935h-1.865739l-.699652.7011765v5.3380392h-3.732l-.699652.7011765v2.8533333l-2.306609 1.8766013.462783-9.9461438 1.693565-3.7333333.048-.147451c.206609-.9924183.451826-2.2326797.451826-2.5098039 0-.2535948-.291652-3.6862745-.415826-5.1252288l3.32087-4.096732.156521-.442353v-3.844183l1.588174-3.1832679v-.6269281l-1.155652-2.3163399h.617218l.540521-.2562092 3.246261-3.96183.092348-.7440523-1.395652-2.9647059.399652-4.1908497.001565-.1103268-.389739-6.2494117 6.955304-3.7484968.102261.1113726.169044.1840523 4.161391 4.5338562-3.229565 4.2562091-.108522.2081046-1.867304 5.7751634-2.932696 3.4488889-.166956.454902v6.6305882l-.91774.749281-.241043.6964706z"/><path d="m109.632052 21.1142484-26.0060868 3.6632679-19.6205217-10.6969934 26.0066087-3.6627451z"/><path d="m56.5201043 34.847634 5.7229566-20.1301961 20.4245217 11.1346405-14.5753043 51.2695425z"/><path d="m89.2681565 91.501281 8.1208696-29.8781699 13.2506089 45.6423529-19.9528698-10.8779084z"/><path d="m148.560209 7.97772549-4.624174 2.04392161-.023478.1145098-7.456174 4.0183006-14.982783-8.16784312 28.005391-3.94457516-1.896521 3.1869281-.028696.66457516z"/><path d="m119.731043 6.63330719 16.048696 8.74980391.389739 6.2551634-.412174 4.328366.063653.3654902 1.288695 2.7372549-2.755826 3.3620915h-1.418609l-.626087 1.014902 1.50574 3.0175163-1.50574 3.0169935-.073565.3137255v3.7615686l-3.341739 4.1233987-.153913.5024837c.164348 1.9121568.427304 5.0405228.434609 5.2674509-.012522.1861438-.217565 1.2538562-.406957 2.1673203l-1.717043 3.7856209-.062087.2588235-.361565 7.9994772-12.259305-40.2175164z"/><path d="m149.595757 15.4853856-3.999131-4.3555555.204-.3989543 3.987652-1.76313724.347479-.9469281-1.158261-2.39843138 2.107304-3.54039215 19.231304 10.48522877-11.211652 1.579085z"/><path d="m142.570904 103.641307-28.502087 4.014641 5.662435-4.828758.101739-.96-3.506608-4.5924188 1.889217-4.7398692 5.118783-4.4376471.242087-.5301961v-3.0901961l3.816-.5019607.608869-.694902-.001043-10.4815686-.073044-1.1942484 3.437218-2.795817.258782-.5448366v-2.4862745h3.732l.699652-.7011765v-5.3380392h1.865739l.700174-.7016993v-9.848366l2.94574-5.0499347.078782-.5071895-1.081565-4.8564706.840522-.6860131.257739-.5437908v-6.7058824l2.856-3.3584314.133043-.2379085 1.873044-5.7945098 3.494608-4.6054902 7.725913-1.0881045 13.758783-1.9377778z"/><path d="m199.425443 73.9686275-.130434-.2337255-5.046783-5.7369935v-8.0517647l-.215478-.5061438-8.184522-7.8630065 2.231478-5.8258824 2.365566 6.2577778.224869.3048366 4.387304 3.4243137 3.129392 8.7905883.281217.1986928.069391.1354248 6.964174 5.0039216.742957.046013 5.171478-2.8313725 3.700174 1.7343791 1.990957 2.9950327.173739.1803921 4.014261 2.8888889 1.08 3.2627451-3.16174-1.9147712-.402782-.0998693-3.640696.2122876-7.217739-2.5584314-.500348.012549-4.44313 1.835817z"/><path d="m199.547217 116.962876.076174-41.3573858 3.075652 1.4258823.560348.0120262 4.478087-1.8499346 7.099305 2.5160784.273391.0386928 3.565565-.2075817 4.599652 2.7853595.017218-.0141177-.010957.0183007 6.697044 3.9524183-.014609 7.8326797.349565.3048366v.0998693l.098087-.0141176.349565.3053594 8.905044-1.2543791 3.286435 3.5027451.39026.2112419 5.080174.8810457 1.792174 2.8888889.594261.3304575h3.848348v1.0520262l.466435.661438 1.825043.644706 2.333739 2.450719.347479.198693 3.270261.764967 2.156869 2.593987c-.048522.005751-.083478.009934-.091826.01098z"/><path d="m260.277339 54.9796078c-2.248696 1.7260131-5.025391 2.0125491-5.072348 2.0167321l-24.384 3.4352941-.350608-.3048366-.095479.0135948v-.0967321l-.350608-.3043137-.034957-12.4951634.603131-.6964706 23.846608-3.3192157c.125739-.0230065.766957-.1296732 1.650261-.1458823 1.470783-.0271896 3.612.197647 5.154261 1.4839215 1.236522 1.0305883 1.863652 2.5369935 1.863652 4.4779085 0 2.8993464-1.291304 4.7545098-2.829913 5.9351634m33.533739 13.4771242c-1.392-1.4473202-3.084-2.6190849-5.05513-3.5262745l-.024-.0057516c-2.704696-1.2407843-5.953565-1.9712418-9.684-2.1971242-.113218-.0067974-.227478-.0120261-.341739-.0177778-.474261-.0245751-.957392-.0397385-1.446261-.0481046-.150261-.0020915-.298435-.0067973-.450261-.0078431-.608348-.004183-1.224522.0010458-1.855304.020915l-.126783-1.3939869c.02713-.004183 2.766261-.4298039 6.105391-1.9717647l.091826.0031373c5.359826-2.4737255 12.285392-7.8661438 12.591653-19.2648366.136695-5.0734641-1.671131-9.23817-5.37287-12.3764706-1.355478-1.1487582-2.904-2.1024837-4.576174-2.8888889l-.001565.0031372c-2.694783-1.2643137-5.877391-2.1369934-9.265565-2.593464-.064174-.008366-.127826-.0162092-.192-.0245752-.424174-.0549019-.851479-.1040523-1.281392-.1458823-.230608-.0219608-.461739-.0386928-.692869-.0564706-.289044-.0235294-.576522-.0501961-.867652-.067451-.580696-.0329412-1.161392-.054902-1.739479-.0653595-.056869-.0005229-.114261 0-.17113-.0005229-.556174-.0078431-1.109739-.0057516-1.659652.0078432-.047479.0010457-.094435.0031372-.14087.004183-.561391.0151634-1.118609.0413072-1.670609.0768627-.03913.0026144-.077739.0052288-.116347.0078432-.550435.037647-1.094609.0857516-1.632522.1427451-.045913.0052287-.091826.0088889-.137739.0141176-.519652.0564706-1.030957.1244445-1.536.1986928-.061044.0088889-.122087.0162092-.183652.0256209-.553566.0841831-1.09774.1777778-1.629913.282353l-.037044.0062745-61.005391 8.5924183-.060522 32.7435294 6.314609 4.5364706 5.095826-2.7905882.632348-.0198693 4.198434 1.9681046.285913.2467973 2.028522 3.0515033 4.094609 2.9469281.255652.3492811 1.666957 5.0332026 5.763652 3.40183.007304-4.2431372.602609-.6928105 27.525913-3.8766013c.135652-.0240523 3.886435-.6462745 6.349043 1.431634 1.349218 1.1383007 2.033739 2.8345098 2.033739 5.0426144 0 .3696732-.024.7194771-.06 1.0583006-.009391.0920262-.015652.1871896-.02713.2766013-.012.0867974-.029739.1678432-.043304.2525491-.019826.1207843-.038087.244183-.061566.3607843-.038086.1803921-.082434.3550327-.129391.5260131-.004695.0172549-.007826.0350326-.013043.0512418-.040174.1416993-.086609.2771242-.133566.412549-.01513.0433987-.02713.0894118-.042782.1322876-.042261.1160784-.090783.2264052-.137218.3372549-.024.0575163-.045391.117647-.070956.1741176-.068348.1521569-.142435.2985621-.218087.4413072-.006783.012549-.012522.0256209-.018783.0376471-.081913.1521568-.168521.2980392-.257739.4397385-.002087.0031373-.00313.0057517-.005217.0088889-2.203304 3.4692811-6.655826 4.0658824-7.002261 4.1066667l-16.917391 2.3827451 2.449565 2.6101961 5.158956.8951634.474783.3205228 1.753044 2.8250981h4.159304l.699652.7011765v1.2564705l1.515652.5359481.273392.177777 2.305043 2.41987 3.295304.771242.378783.233725 2.853913 3.431634c6.713739-1.132026 30.9-6.664052 31.465043-27.6146405.00574-.0951634.395479-6.5082353-4.333565-11.4253595"/><path d="m282.694278 61.7178039c-.353739-.0564706-.708-.1124183-1.072174-.1584314-.506608-.0653594-1.025739-.1171241-1.55113-.1615686-.133044-.0115032-.257739-.0313725-.391826-.0407843.483652-.1845752.991826-.3926797 1.517217-.627451l1.904348 1.048366c-.132522-.0230065-.272348-.0386928-.406435-.0601307"/><path d="m182.278852 28.347451-4.205739-8.3811765 20.234087 11.0311111-.022957 12.307451-.032347 17.2334641-1.944522-5.4640523-.229565-.3179085-4.393044-3.4279739-2.946261-7.793464-.338087-.0005229.234261-.1840523-2.957739-3.772549-1.240696-5.6120262-.683478-.5500653h-1.399304v-4.7529412z"/><path d="m239.051635 10.7716078c.152348-.0266666 15.381391-2.64104571 25.32313 3.5309804l12.733044 6.9202615c-.650609-.1301961-1.305913-.2426144-1.96487-.3393464-.037043-.0052288-.075652-.0094118-.112696-.0146406-.598434-.0862745-1.198956-.1615686-1.801043-.2211764-.226435-.0230066-.454957-.03817-.682957-.0580392-.411652-.033987-.822782-.0684968-1.234434-.0909804-.348-.0198693-.698087-.0303268-1.048696-.0418301-.293739-.0094118-.588-.0193464-.880696-.0230065-.403826-.0052288-.807652-.0026144-1.213043.0031372-.250435.0036602-.498783.008366-.747652.0162092-.409044.012549-.816522.0303268-1.225565.0543791-.266609.0151634-.530087.0345098-.794609.0549019-.372522.0282353-.744522.0575164-1.116522.0956863-.347478.0355555-.68713.0789542-1.027826.1218301-.288.0360784-.576522.0684967-.862957.1108496-.605217.0888889-1.199478.1887582-1.77913.3011765-.037043.0067974-.074609.0115033-.112174.0188235l-61.363304 8.6431373-19.620522-10.6964706z"/><path d="m254.645687 44.6150588.031304-.0047059c.018783-.0031372 1.029392-.180915 2.275305-.1061437 1.122782.0674509 2.437565.3403921 3.396521 1.1403921.901566.7518954 1.358609 1.8954248 1.358609 3.3997386 0 5.8520261-6.361043 6.5296732-6.663652 6.5594771l-23.622783 3.3265359-.030261-11.0781699z"/><path d="m259.488574 75.1463529c.904696-.0088888 2.190783.105621 3.295826.6828759.277043.1443137.541565.3173856.786261.5249673 1.015826.8585621 1.530261 2.1924183 1.530261 3.9649673 0 6.4318954-6.696 7.1932026-6.981392 7.2230065l-26.75426 3.7678432.022956-12.2844445 26.945217-3.7950327c.013044-.0020915.476348-.0779084 1.155131-.084183"/><path d="m178.01473 22.9723922 2.938957 5.856732v5.2878431l.700174.7011765h1.537043l1.153566 5.2183006.133565.282353 2.810608 3.5853595-2.914434 7.6052287.169565.7571242 8.305565 7.9785621v8.0188235l.175826.4648366 5.085913 5.7568628.114783.206013-.077739 41.8990852-20.286261-11.059347z"/></g><path d="m142.570904 103.641307-28.502087 4.014641 5.662435-4.828758.101739-.96-3.506608-4.5924188 1.889217-4.7398692 5.118783-4.4376471.242087-.5301961v-3.0901961l3.816-.5019607.608869-.694902-.001043-10.4815686-.073044-1.1942484 3.437218-2.795817.258782-.5448366v-2.4862745h3.732l.699652-.7011765v-5.3380392h1.865739l.700174-.7016993v-9.848366l2.94574-5.0499347.078782-.5071895-1.081565-4.8564706.840522-.6860131.257739-.5437908v-6.7058824l2.856-3.3584314.133043-.2379085 1.873044-5.7945098 3.494608-4.6054902 7.725913-1.0881045 13.758783-1.9377778zm-53.3029562-12.1401305 8.1208696-29.87817 13.2511306 45.6428755-19.9533915-10.878431zm-7.0606956 20.6426145-30.3052174 4.267712-28.6142609-81.7192154 30.5598261-4.3048366 13.5573913 49.524183 1.3481739.0067974 15.2895652-53.7835294 12.4257392-1.7500654 14.8653914-2.0941176 1.637739 5.372549v.0005228l13.40087 43.962353.157565.0481046.072 1.1665359v9.823268l-3.816.5019608-.60887.6949019v3.3861438l-5.006087 4.3393464-.192.269804-2.099478 5.2679738.093913.686536 3.34487 4.380131-6.167479 5.259085-14.1125214-48.6091507-1.3471304.0115033zm-51.8890435-7.266928-28.39565218-81.0949022 19.85165218 10.8224836 28.3951304 81.0954246zm21.8452174-75.668497-29.6869565 4.1819608-19.62052177-10.6964706 29.68747827-4.1819608zm4.3565217 5.6392157 5.7234783-20.1301961 20.424 11.1346405-14.5747826 51.2695425zm53.1120002-13.7333333-26.0060871 3.6632679-19.62-10.6969934 26.0060869-3.6627451 14.8471302 8.0941176zm10.099304-14.48104579 16.048174 8.74980389.389739 6.2551634-.412174 4.328366.063652.3654902 1.288696 2.7372549-2.755304 3.3626144h-1.418609l-.626087 1.0143791 1.505218 3.0175163-1.505218 3.0169935-.073565.3142484v3.7610457l-3.342261 4.1233987-.153913.5030066c.164348 1.9116339.427826 5.04.43513 5.2669281-.012521.1861438-.218087 1.2538562-.407478 2.1673202l-1.716522 3.7856209-.062608.2588236-.361044 7.9994771-12.259826-40.2175163zm29.864348 8.85228759-3.998609-4.3555556.203479-.3989542 3.987652-1.76313726.347478-.94692811-1.157739-2.39843137 2.106782-3.54039216 19.231305 10.4852288-11.211652 1.5790849zm-1.035652-7.50797386-4.623652 2.04444446-.024.1145098-7.456174 4.0177778-14.982261-8.16784317 28.005391-3.94457516-1.896522 3.1869281-.028695.66457516zm-8.340522 35.68993466-2.902435 4.9772549-.096.3539869v9.3369935h-1.865739l-.699652.7006536v5.3380392h-3.732l-.699652.7016993v2.8533334l-2.306087 1.8766013.462261-9.9461438 1.693565-3.7338562.048-.1469281c.206609-.9924183.451826-2.2326798.451826-2.5103268 0-.2530719-.291652-3.6857517-.415826-5.1247059l3.32087-4.096732.156521-.442353v-3.8447059l1.588174-3.1827451v-.6274509l-1.155652-2.315817h.617217l.540522-.2562092 3.246783-3.96183.091826-.7440523-1.395131-2.9647059.399131-4.1908497.001565-.1103268-.389739-6.2494118 6.955304-3.7484967.102261.1113726.169044.1840522 4.161913 4.5338563-3.230087 4.2562091-.108522.2081046-1.867304 5.7751634-2.932696 3.4488889-.166957.4543791v6.6311111l-.917739.749281-.241043.6964706zm32.627478-31.31817-21.684521-11.82117642-.432-.07843138-31.550087 4.44392157-.052174.28915033-.528.22954248-5.016 19.46143792-1.086783-3.5654902-.366782-.2342484.032347-.1772549-21.6850431-11.82169932-.4314783-.07843137-28.3340869 3.99111109-.0511305.2813072-.5248695.2206536-5.330087 18.7503268-.7716522-2.8183007-.3735652-.2462745.0333913-.1845751-21.6845217-11.8216994-.432-.0779085-32.01495655 4.5092811-.09547826.5281046-.46747826.3984313 29.08695647 83.0692812.3255653.384314 21.6845217 11.821699.1267826-.108235.3052174.186143 31.3293913-4.412026.5775652-.510327 5.1276522-18.8643132.8608696 2.9662745.3370434.420915 21.685044 11.8216997.13826-.111896.293218.190327 31.321565-4.412026.568174-.478431 29.410956-91.3087587-.396521-.4726797z" fill="#fff" mask="url(#a)"/><path d="m121.79687 71.5160784c-.565044 20.9505883-24.7513048 26.4826144-31.4655657 27.6146406l-2.8533913-3.431634-.3787826-.2337255-3.2953043-.7712419-2.3050435-2.4198692-.2733913-.1777778-1.5156522-.5359477v-1.2564706l-.6996521-.7011765h-4.1593044l-1.7530435-2.825098-.4747826-.3205229-5.1589565-.8951634-2.4495652-2.6101961 16.9173913-2.3827451c.3464348-.0407843 4.7989565-.6373856 7.0022609-4.1066666.0020869-.0031373.0031304-.0057517.0046956-.0088889.0897391-.1416994.1763478-.2875817.2582609-.4397386.0062608-.0120261.012-.025098.0187826-.037647.0756522-.1427451.1497391-.2891504.2180869-.4413072.0255653-.0564706.0469566-.1166013.0704348-.1735948.0469565-.1113726.0954783-.2216994.1377392-.3377778.0151304-.0428758.0276521-.0888889.0427826-.1322876.0469565-.1354248.0933913-.2708496.1335652-.412549.0052174-.0162091.0083478-.0339869.0125217-.0512418.0474783-.1709804.0918261-.3456209.1293913-.5260131.024-.1166013.0422609-.2394771.062087-.3607843.0135652-.0847059.0313043-.1657516.0433043-.252549.0114783-.0894118.0177392-.1845752.0271305-.2766013.036-.3388236.06-.6886275.06-1.0583007 0-2.2081046-.6845218-3.9043137-2.0337392-5.0426144-2.4631304-2.0779085-6.2133913-1.4556862-6.3490434-1.431634l-27.5264348 3.8766014-.602087.6928104-.0078261 4.2431373-5.7631304-3.4018301-1.6669565-5.0332026-.2556522-.3492811-4.0951304-2.9469281-2.028-3.0515032-.2859131-.2467974-4.1984348-1.9681046-.6323478.0198693-5.0958261 2.7905882-6.3146087-4.5364706.0605218-32.7435294 61.0053913-8.5924183.0370435-.0062745c.5321739-.1045751 1.0763478-.1981699 1.629913-.2823529.0610435-.0094118.1226087-.0167321.1836522-.0256209.5050434-.0742484 1.0163478-.1422223 1.536-.1986929.045913-.0052287.0918261-.0088888.1377391-.0141176.537913-.0569935 1.082087-.105098 1.6325217-.1427451.0386087-.0026144.0772174-.0052288.1163479-.0078431.552-.0355556 1.1092174-.0616994 1.6706087-.0768628.0464347-.0010457.0933913-.0031372.1408695-.004183.5499131-.0135948 1.1034783-.0156863 1.6596522-.0078431.0568696.0005229.1137391 0 .1711304.0010457.578087.0099347 1.1587826.0318955 1.7394783.0648366.2906087.0172549.5786087.0439216.8676522.067451.2311304.0177778.4622608.0345098.6928695.0564706.4299131.0418301.8572174.0909804 1.2813913.1458824.064174.008366.1278261.0162091.192.0245751 3.3876523.4564706 6.5707823 1.3291503 9.2655653 2.5934641l.001565-.0031373c1.672174.7869281 3.220696 1.7401307 4.575652 2.8888889 3.702261 3.1383007 5.510087 7.3030065 5.373392 12.3764706-.306783 11.3986928-7.231826 16.7911111-12.591653 19.2648366l-.091826-.0031373c-3.33913 1.5424837-6.0782605 1.9675817-6.1053909 1.9717647l.1267826 1.393987c.6307826-.0198693 1.2469565-.0250981 1.8547823-.0209151.151826.0010458.300522.0057517.450783.0078432.488869.008366.972.0235294 1.446261.0481045.114261.0057517.228522.0109804.341217.0177778 3.730957.2258824 6.979826.9563399 9.684522 2.1971242l.024.0057516c1.97113.9071896 3.66313 2.0789543 5.05513 3.5262746 4.729044 4.9171241 4.339305 11.330196 4.333566 11.4253594zm-66.7794787 11.427451.0229565-12.2839216 26.9452174-3.7950326c.0130435-.0020915.4763478-.0779085 1.1551305-.084183.9052173-.0088889 2.1907826.1056209 3.2963478.6828758.2765217.1443137.5415652.3173856.7857391.5244444 1.0158261.859085 1.5302609 2.1929412 1.5302609 3.9654902 0 6.4318954-6.696 7.1932026-6.9813913 7.2224837zm33.6005217 16.4392157-65.4187826 9.2141179.0766957-41.3573859 3.0756522 1.4258824.5603478.0120261 4.4780869-1.8499346 7.0987827 2.5160784.273913.0386928 3.5655652-.2075817 4.5991304 2.7853595.0172174-.0141176-.0104347.0183006 6.6970434 3.9524183-.0151304 7.8326797.3495652.3048366v.0998693l.0986087-.0141176.3495652.3053595 8.9045218-1.2543791 3.2869565 3.5027451.3902609.2112418 5.0796521.8810458 1.7926957 2.8888888.5937391.3304576h3.8483478v1.0520261l.4669566.6614379 1.8250434.6447059 2.3337392 2.4507189.3474782.1986929 3.2697392.7649673 2.1568695 2.5939869c-.0485217.0057516-.0829565.0099346-.0918261.0109804zm-65.6707826-34.0141176-5.0462608-5.7369935v-8.0517647l-.216-.5061438-8.18452177-7.8630065 2.23147827-5.8253595 2.3655652 6.2577778.2248696.3043137 4.3873043 3.4243137 3.1293913 8.7911111.2812174.1986928.0693913.1354249 6.9646957 5.0039215.7429565.0460131 5.1714783-2.8318954 3.6996521 1.7343791 1.9909565 2.9950326.1742609.1809151 4.0137391 2.888366 1.08 3.263268-3.1617391-1.9147713-.4027826-.1003921-3.6406956.2128104-7.2177392-2.5589542-.5003478.012549-4.4431304 1.835817-3.5833044-1.6616994zm-1.1467826 42.8559475-20.28626084-11.0593462.1533913-82.5589543 2.93843478 5.856732v5.2878432l.70017392.7011764h1.53704347l1.15356522 5.2183007.13356522.2823529 2.81060873 3.5853595-2.91443482 7.6052288.16956522.7571242 8.3055652 7.978562v8.0188236l.1758261.4648366 5.085913 5.7568627.1147827.2060131zm.1591305-85.5932025-.0229566 12.307451-.0323478 17.2334641-1.9445217-5.4640523-.2295652-.3179085-4.3930435-3.4279739-2.9462609-7.793464-.3380869-.0005229.2337391-.1840523-2.95721741-3.7730719-1.24069565-5.6115032-.68347826-.5500654h-1.39982609v-4.753464l-.07408696-.3147713-4.20573913-8.3811765zm40.7441739-20.2258823c.1523478-.02666667 15.381913-2.64104576 25.3231304 3.53098039l12.7335654 6.92026141c-.650609-.1301961-1.306435-.2420915-1.9653915-.3393464-.0370435-.0052287-.0751304-.0094117-.1126956-.0146405-.5984348-.0862745-1.1989566-.1610458-1.8010435-.2211765-.2259131-.0230065-.4549565-.0381699-.6824348-.0575163-.4121739-.0345098-.8233043-.0684967-1.2349565-.0915033-.348-.0193464-.698087-.0298039-1.0481739-.04183-.2942609-.0088889-.5874783-.0193465-.8812174-.0230066-.4033044-.0052287-.8076522-.0026144-1.2130435.0036601-.2504348.0031373-.4987826.0078432-.7476522.0156863-.4090434.012549-.8165217.0303268-1.2250434.0543791-.2666087.0151634-.5306087.0345098-.7951305.054902-.3725217.0282353-.7445217.0580392-1.116.0956862-.3474782.0355556-.6876522.0789543-1.0283478.1218301-.288.0366013-.5765217.0684967-.8624348.1108497-.6057391.0888889-1.1994783.1887582-1.7796522.3011765-.0370434.0073202-.0746087.0115032-.1116521.0188235l-61.3638261 8.6431372-19.62052177-10.6964706zm44.0493908 51.0060131c-.132521-.0224837-.272347-.03817-.406434-.0596079-.353739-.0569934-.708522-.1129412-1.072174-.1584313-.507131-.0653595-1.025739-.1176471-1.551652-.1620916-.132522-.0109803-.257218-.0308496-.391826-.0407843.484173-.1840523.992347-.3926797 1.517739-.6269281zm11.733914 5.7223529c-1.489044-1.5524183-3.298435-2.8005229-5.383305-3.776732l.012522-.0449673-6.758609-3.7186928c5.506957-2.8899347 12.00887-8.6640523 12.309913-19.8734641.148696-5.5210458-1.825043-10.0585621-5.868-13.4860131-1.439478-1.2203921-3.081913-2.2305882-4.852174-3.0640523l.001044-.0020915-19.2193045-10.44339866c-5.4333913-3.37464052-12.2926957-4.19921568-17.0906087-4.29647058-5.1730435-.1124183-9.0182609.56784313-9.1544348.59294117l-61.60643478 8.67712419-.06782609.37542488-.53426087.3179084-.16173913 87.1890197.36573913.6175163 21.68400004 11.8222225.204-.12183.228.199215 66.1914782-9.322875c.3370435-.03451 33.7231305-3.7866671 34.4076525-29.1884972.020869-.286536.450261-7.0745098-4.707652-12.4522876z" fill="#fff" mask="url(#b)" transform="translate(176.347826 8.366013)"/><path d="m254.645687 44.6150588.031304-.0047059c.018783-.0031372 1.029392-.180915 2.275305-.1061437 1.122782.0674509 2.437565.3403921 3.396521 1.1403921.901566.7518954 1.358609 1.8954248 1.358609 3.3997386 0 5.8520261-6.361043 6.5296732-6.663652 6.5594771l-23.622783 3.3265359-.030261-11.0781699zm6.597913-.0486274c-1.542783-1.2862745-3.683478-1.5105883-5.154261-1.4839216-.883304.0162092-1.524522.1233987-1.650261.1458824l-23.846608 3.3192156-.603131.6964706.034957 12.4951634.350087.3043138v.096732l.096-.0130719.350608.3043137 24.384-3.4347712c.046957-.0047059 2.823652-.2912419 5.072348-2.0172549 1.538609-1.1806536 2.829913-3.0352941 2.829913-5.9351634 0-1.9403922-.62713-3.4473203-1.863652-4.4779085z" fill="#f0f0f1"/><path d="m62.7366261 140.54949-6.1445218 18.150066h-8.1166956l-3.201913-10.112419-3.2019131 10.112419h-8.1172174l-6.144-18.150066h8.2142609l2.7166956 9.528889 2.9102609-9.528889h7.3737391l2.9102609 9.528889 2.7166957-9.528889z" fill="#231f20"/><path d="m77.5101913 153.254222c-1.0351304-1.101699-2.5873043-1.393464-3.7194783-1.393464-1.2928695 0-2.6843478.38902-2.6843478 1.491242 0 1.101176 1.3914783 1.490196 2.6843478 1.490196 1.132174 0 2.6843479-.291765 3.7194783-1.393464zm8.4083478-4.764444v6.838693c0 1.296209.2259131 2.333594.7434783 3.37098h-8.7318261c-.3229565-.357124-.549913-.875817-.549913-1.361046v-.097255c-1.3575653 1.328105-3.6542609 2.106144-6.4027826 2.106144-3.6866087 0-8.2789566-1.458301-8.2789566-5.995294 0-4.538039 4.5923479-5.995817 8.2789566-5.995817 2.7485217 0 5.0452173.777516 6.4027826 2.106144v-1.1017c0-1.750065-1.778087-2.851764-5.0118261-2.851764-1.682087 0-4.010087.291242-6.3391305 1.263791l-1.4551304-5.347974c2.652-1.069281 6.6297391-1.587974 9.6370435-1.587974 7.3737391 0 11.7073043 3.111111 11.7073043 8.653072z" fill="#231f20"/><path d="m89.2121739 158.699608h8.7313044v-23.983791h-8.7313044z" fill="#231f20" mask="url(#c)"/><path d="m101.369739 158.699608h8.731304v-23.983791h-8.731304z" fill="#231f20" mask="url(#c)"/><path d="m130.0848 149.624261c0-2.139085-1.326261-3.564444-3.783652-3.564444-1.390435 0-2.878435.453333-4.042435 1.944052v3.241307c1.164 1.490719 2.652 1.944053 4.042435 1.944053 2.457391 0 3.783652-1.42536 3.783652-3.564968m8.214261 0c0 6.125491-3.751826 9.723399-9.345913 9.723399-2.587305 0-4.948696-.745621-6.694435-2.819869v2.171503h-8.731826v-23.983791h8.731826v8.005752c1.745739-2.074248 4.10713-2.820392 6.694435-2.820392 5.594087 0 9.345913 3.597908 9.345913 9.723398" fill="#231f20" mask="url(#c)"/><path d="m140.848226 158.699503v-18.150065h8.731826v2.722614c1.519826-2.23634 3.880174-3.175947 6.726261-3.175947v7.065098c-3.718956 0-6.079304 1.361045-6.726261 3.953987v7.584313z" fill="#231f20" mask="url(#c)"/><path d="m165.648939 147.517908h7.470783c-.549392-1.393986-1.713913-2.171503-3.654261-2.171503-1.811478 0-3.201391.647843-3.816522 2.171503m4.916348 6.255164c2.522609 0 3.847826-.518693 5.497565-1.620915l4.139478 4.180915c-2.652 2.333595-6.112173 3.144052-10.12226 3.144052-8.085392 0-12.774783-3.662745-12.774783-9.853072 0-6.12549 4.624696-9.852026 12.095478-9.852026 6.435652 0 11.513218 3.175948 11.513218 9.560784 0 .907713-.097566 1.523138-.259305 2.073726h-15.102782c.614608 1.783006 2.296695 2.366536 5.013391 2.366536" fill="#231f20" mask="url(#c)"/><path d="m197.240661 153.254222c-1.034609-1.101699-2.587304-1.393464-3.719478-1.393464-1.29287 0-2.683826.38902-2.683826 1.491242 0 1.101176 1.390956 1.490196 2.683826 1.490196 1.132174 0 2.684869-.291765 3.719478-1.393464zm8.408348-4.764444v6.838693c0 1.296209.225913 2.333594.743478 3.37098h-8.731304c-.323479-.357124-.550435-.875817-.550435-1.361046v-.097255c-1.358087 1.328105-3.654261 2.106144-6.402783 2.106144-3.686608 0-8.278956-1.458301-8.278956-5.995294 0-4.538039 4.592348-5.995817 8.278956-5.995817 2.748522 0 5.044696.777516 6.402783 2.106144v-1.1017c0-1.750065-1.778087-2.851764-5.011826-2.851764-1.682087 0-4.010087.291242-6.339131 1.263791l-1.45513-5.347974c2.652-1.069281 6.629217-1.587974 9.637043-1.587974 7.373739 0 11.707305 3.111111 11.707305 8.653072z" fill="#231f20" mask="url(#c)"/><path d="m220.066748 152.832993-2.392696 2.398432v3.468235h-8.731304v-23.983791h8.731304v12.348236l5.789218-6.51451h9.281217l-6.953217 7.519477 7.308521 10.630588h-9.151826z" fill="#231f20" mask="url(#c)"/><path d="m240.792104 147.517908h7.470783c-.549391-1.393986-1.714435-2.171503-3.654783-2.171503-1.810956 0-3.201391.647843-3.816 2.171503m4.916348 6.255164c2.522087 0 3.847826-.518693 5.497044-1.620915l4.14 4.180915c-2.652 2.333595-6.112174 3.144052-10.122261 3.144052-8.085392 0-12.774783-3.662745-12.774783-9.853072 0-6.12549 4.624174-9.852026 12.094957-9.852026 6.436174 0 11.513739 3.175948 11.513739 9.560784 0 .907713-.097565 1.523138-.259305 2.073726h-15.103304c.615131 1.783006 2.297218 2.366536 5.013913 2.366536" fill="#231f20" mask="url(#c)"/><path d="m258.542452 158.699503v-18.150065h8.731305v2.722614c1.519826-2.23634 3.880695-3.175947 6.726782-3.175947v7.065098c-3.718956 0-6.079304 1.361045-6.726782 3.953987v7.584313z" fill="#231f20" mask="url(#c)"/><path d="m297.702417 152.606275c0 3.694117-3.556695 6.871111-11.318608 6.871111-5.078087 0-8.990609-1.361569-11.707826-3.014379l3.396521-4.245752c2.102087 1.13464 4.915305 2.074248 8.569566 2.074248 1.972695 0 2.846608-.162091 2.846608-.745098 0-.551634-.744521-.745621-3.331826-.875294-5.400522-.292287-10.736348-2.074771-10.736348-6.352418 0-3.953987 4.559479-6.546928 11.092174-6.546928 4.107131 0 7.826087.745621 10.510435 2.171503l-3.460174 4.407843c-1.875652-.972549-4.365913-1.393987-7.08313-1.393987-1.745218 0-2.942087.162092-2.942087.713203s1.002261.648366 3.492521.778039c5.88574.291242 10.672174 1.976993 10.672174 6.157909" fill="#231f20" mask="url(#c)"/></g></g></svg>